<svg xmlns="http://www.w3.org/2000/svg" fill="none" viewBox="0 0 100 100"><g clip-path="url(#a)"><path fill="#0081FB" d="M10.801 60.803c0 3.819.838 6.75 1.934 8.524 1.436 2.323 3.578 3.307 5.762 3.307 2.817 0 5.394-.7 10.36-7.568 3.978-5.504 8.666-13.232 11.82-18.076l5.341-8.207c3.71-5.7 8.005-12.035 12.93-16.33C62.968 18.947 67.304 17 71.668 17c7.327 0 14.307 4.246 19.648 12.21C97.162 37.93 100 48.917 100 60.254c0 6.739-1.328 11.69-3.589 15.603-2.184 3.784-6.44 7.564-13.6 7.564V72.634c6.13 0 7.66-5.634 7.66-12.081 0-9.188-2.142-19.384-6.86-26.67-3.35-5.167-7.69-8.325-12.464-8.325-5.164 0-9.32 3.895-13.99 10.84-2.483 3.69-5.032 8.186-7.894 13.26l-3.15 5.581c-6.33 11.222-7.933 13.778-11.098 17.996-5.547 7.387-10.283 10.186-16.518 10.186-7.397 0-12.074-3.203-14.97-8.03C1.16 71.458 0 66.298 0 60.417z"/><path fill="url(#b)" d="M8.516 29.971C13.47 22.338 20.615 17 28.811 17c4.748 0 9.466 1.405 14.394 5.429 5.39 4.398 11.135 11.642 18.302 23.58l2.57 4.285c6.204 10.335 9.734 15.652 11.8 18.16 2.656 3.22 4.517 4.18 6.934 4.18 6.13 0 7.66-5.634 7.66-12.081l9.529-.3c0 6.74-1.328 11.692-3.589 15.604-2.184 3.784-6.44 7.564-13.6 7.564-4.452 0-8.395-.967-12.756-5.08-3.352-3.158-7.271-8.768-10.287-13.81L50.8 49.55c-4.5-7.519-8.628-13.124-11.017-15.663-2.57-2.73-5.873-6.027-11.145-6.027-4.267 0-7.89 2.995-10.923 7.574z"/><path fill="url(#c)" d="M28.638 27.86c-4.267 0-7.891 2.995-10.923 7.574-4.288 6.472-6.914 16.112-6.914 25.37 0 3.817.838 6.75 1.934 8.523L3.526 75.39C1.161 71.458 0 66.298 0 60.417c0-10.694 2.935-21.839 8.516-30.446C13.47 22.338 20.615 17 28.811 17z"/></g><defs><linearGradient id="b" x1="1278.13" x2="8155.45" y1="3732.2" y2="4079.55" gradientUnits="userSpaceOnUse"><stop stop-color="#0064E1"/><stop offset=".4" stop-color="#0064E1"/><stop offset=".83" stop-color="#0073EE"/><stop offset="1" stop-color="#0082FB"/></linearGradient><linearGradient id="c" x1="1564.89" x2="1564.89" y1="4850.76" y2="2312.19" gradientUnits="userSpaceOnUse"><stop stop-color="#0082FB"/><stop offset="1" stop-color="#0064E0"/></linearGradient><clipPath id="a"><path fill="#fff" d="M0 17h100v66.797H0z"/></clipPath></defs></svg>