<?xml version="1.0" encoding="iso-8859-1"?>
<!-- Uploaded to: SVG Repo, www.svgrepo.com, Generator: SVG Repo Mixer Tools -->
<svg fill="#0984e2"  height="800px" width="800px" version="1.1" id="Layer_1" xmlns="http://www.w3.org/2000/svg" xmlns:xlink="http://www.w3.org/1999/xlink" 
	 viewBox="0 0 512 512" xml:space="preserve">
<g>
	<g>
		<path d="M503.83,449.362c-4.512,0-8.17,3.658-8.17,8.17v13.617H16.34v-13.617c0-4.512-3.658-8.17-8.17-8.17S0,453.02,0,457.532
			v21.787c0,4.512,3.658,8.17,8.17,8.17h495.66c4.512,0,8.17-3.658,8.17-8.17v-21.787C512,453.02,508.342,449.362,503.83,449.362z"
			/>
	</g>
</g>
<g>
	<g>
		<path d="M503.83,394.894c-4.512,0-8.17,3.658-8.17,8.17v13.617H16.34v-13.617c0-4.512-3.658-8.17-8.17-8.17S0,398.552,0,403.064
			v21.787c0,4.512,3.658,8.17,8.17,8.17h495.66c4.512,0,8.17-3.658,8.17-8.17v-21.787C512,398.552,508.342,394.894,503.83,394.894z"
			/>
	</g>
</g>
<g>
	<g>
		<path d="M503.83,24.511H8.17c-4.512,0-8.17,3.658-8.17,8.17v337.702c0,4.512,3.658,8.17,8.17,8.17h495.66
			c4.512,0,8.17-3.658,8.17-8.17V32.681C512,28.169,508.342,24.511,503.83,24.511z M495.66,362.213H16.34V40.851H495.66V362.213z"/>
	</g>
</g>
<g>
	<g>
		<path d="M473.35,331.656L330.108,201.532l143.24-130.123c3.34-3.034,3.587-8.201,0.553-11.541
			c-3.034-3.34-8.201-3.588-11.541-0.553L256,246.777L49.642,59.318c-3.339-3.034-8.507-2.787-11.541,0.553
			s-2.787,8.507,0.553,11.541l143.237,130.12L38.655,331.652c-3.34,3.034-3.588,8.201-0.553,11.541
			c1.612,1.775,3.827,2.677,6.05,2.677c1.96,0,3.926-0.702,5.491-2.123l144.4-131.177l56.464,51.294
			c1.558,1.415,3.525,2.123,5.494,2.123c1.968,0,3.936-0.707,5.494-2.123l56.464-51.293l144.404,131.18
			c1.565,1.422,3.531,2.123,5.491,2.123c2.223,0,4.438-0.902,6.05-2.677C476.938,339.857,476.69,334.69,473.35,331.656z"/>
	</g>
</g>
</svg>